# xmcd
#
# Track frame offsets: 
#        150
#        16624
#        36153
#        60935
#        83558
#        99048
#
# Disc length: 1553 seconds
#
# Revision: 0
# Processed by: cddbd v1.5.2PL0 Copyright (c) Steve Scherf et al.
# Submitted via: ExactAudioCopyFreeDBPlugin 1.0
#
DISCID=2d060f06
DTITLE=Cody Jinks - Black Sheep
DYEAR=2013
DGENRE=Country
TTITLE0=Big Iron Wheels
TTITLE1=Old Friend
TTITLE2=Blacksheep
TTITLE3=Johnny
TTITLE4=Little Train
TTITLE5=Fast Hand
EXTD=
EXTT0=
EXTT1=
EXTT2=
EXTT3=
EXTT4=
EXTT5=
PLAYORDER=
